<?xml version="1.0" encoding="utf-8"?>
<!-- Generator: Adobe Illustrator 17.0.0, SVG Export Plug-In . SVG Version: 6.00 Build 0)  -->
<!DOCTYPE svg PUBLIC "-//W3C//DTD SVG 1.0//EN" "http://www.w3.org/TR/2001/REC-SVG-20010904/DTD/svg10.dtd">
<svg version="1.0" id="Layer_1" xmlns="http://www.w3.org/2000/svg" xmlns:xlink="http://www.w3.org/1999/xlink" x="0px" y="0px"
	 width="150px" height="150px" viewBox="0 0 150 150" enable-background="new 0 0 150 150" xml:space="preserve">
<path fill="#FFFFFF" d="M145.899,41.423L128.68,9.392c-0.111-0.205-0.302-0.357-0.534-0.417L93.503,0.033
	c-0.363-0.113-0.761,0.072-0.944,0.404c-0.041,0.073-4.383,7.345-19.606,7.345c-15.196,0-19.155-7.068-19.194-7.134
	c-0.185-0.351-0.568-0.557-0.965-0.431l-34.82,9.116c-0.225,0.059-0.424,0.212-0.528,0.417L0.106,41.688
	c-0.124,0.226-0.14,0.49-0.041,0.721c0.1,0.239,0.298,0.418,0.537,0.492c0.038,0.014,4.177,1.299,12.677,5.901
	c7.673,4.145,12.862,8.346,12.915,8.384c0.206,0.167,0.462,0.218,0.701,0.18c0.244-0.054,0.462-0.205,0.582-0.431l5.091-9.384
	c1.183,16.948,2.306,39.897,1.467,58.378c-0.265,5.928-1.255,38.436-1.269,38.76c-0.013,0.431,0.304,0.807,0.727,0.867
	c0.179,0.02,17.814,2.444,40.915,2.444c13.576,0,26.36-0.829,38.006-2.444c0.422-0.059,0.74-0.436,0.729-0.867
	c-0.016-0.325-1.007-32.832-1.27-38.76c-0.846-18.598,0.298-41.709,1.494-58.769l5.168,9.512c0.12,0.224,0.331,0.377,0.576,0.431
	c0.252,0.038,0.509-0.014,0.694-0.18c0.052-0.041,5.247-4.239,12.924-8.386c8.498-4.604,12.629-5.887,12.671-5.9
	c0.25-0.073,0.444-0.251,0.541-0.484C146.031,41.913,146.018,41.649,145.899,41.423z"/>
</svg>
