<?xml version="1.0" encoding="utf-8"?>
<!-- Generator: Adobe Illustrator 16.0.0, SVG Export Plug-In . SVG Version: 6.00 Build 0)  -->
<!DOCTYPE svg PUBLIC "-//W3C//DTD SVG 1.1//EN" "http://www.w3.org/Graphics/SVG/1.1/DTD/svg11.dtd">
<svg version="1.1" id="Ebene_1" xmlns="http://www.w3.org/2000/svg" xmlns:xlink="http://www.w3.org/1999/xlink" x="0px" y="0px"
	 width="423px" height="100px" viewBox="0 0 423 100" enable-background="new 0 0 423 100" xml:space="preserve">
<g>
	<path fill-rule="evenodd" clip-rule="evenodd" fill="#C7438E" d="M59.342,17.083c0,0,4.528-6.435,1.906-8.341
		c-2.621-1.907-6.911,4.051-6.911,4.051S51,5.405,48.378,6.358c-2.622,0.954-1.192,7.865-1.192,7.865s-8.818-5.481-25.263-1.191
		C5.478,17.322,1.187,33.291,2.141,42.825c0.953,9.533,11.678,18.592,15.015,19.781L6.668,68.804c0,0,5.006,6.436,12.156,4.051
		c0,0,0.262,7.391,7.888,10.012l-0.261,6.436l-3.337,3.338h2.957l1.716-1.908l1.575,1.793h2.421l-2.136-2.961l0.214-5.814
		c0,0,2.252,0.68,4.274,0.131v5.338l-1.729,3.313l2.528,0.109l1.168-2.17l1.977,2.17h2.612l-3.515-3.863v-5.672
		c0,0,6.435-1.43,6.435-10.486c0,0,7.627,6.674,12.394-4.768l-10.964-3.813c0,0,17.403-5.666,19.067-22.643
		c1.193-12.156-5.243-17.638-5.243-17.638s6.912,0.954,7.389-2.145C66.731,18.514,59.342,17.083,59.342,17.083 M38.366,77.655
		c-3.353,3.355-9.685,2.982-12.774-0.104c-3.088-3.088-1.214-12.275-1.214-12.275s2.13,1.105,6.618,1.127
		c4.666,0.025,8.669-1.35,8.669-1.35S41.72,74.302,38.366,77.655 M36.809,50.349c-5.725,0-10.419-4.389-10.915-9.985
		c-1.635,0.971-3.539,1.539-5.578,1.539c-6.056,0-10.965-4.909-10.965-10.964c0-6.055,4.909-10.964,10.965-10.964
		c5.724,0,10.418,4.389,10.914,9.985c1.636-0.97,3.539-1.537,5.579-1.537c6.055,0,10.964,4.909,10.964,10.963
		S42.863,50.349,36.809,50.349"/>
	<path fill="none" stroke="#A30B6E" stroke-width="0.5" stroke-miterlimit="10" d="M64.108,41.396
		c1.193-12.156-5.243-17.638-5.243-17.638s6.912,0.954,7.389-2.145c0.477-3.098-6.912-4.529-6.912-4.529s4.528-6.435,1.906-8.341
		c-2.621-1.907-6.911,4.051-6.911,4.051S51,5.405,48.378,6.358c-2.622,0.954-1.192,7.865-1.192,7.865s-8.818-5.481-25.263-1.191
		C5.478,17.322,1.187,33.291,2.141,42.825c0.953,9.533,11.678,18.592,15.015,19.781L6.668,68.804c0,0,5.006,6.436,12.156,4.051
		c0,0,0.262,7.391,7.888,10.012l-0.261,6.436l-3.337,3.338h2.957l1.716-1.908l1.575,1.793h2.421l-2.136-2.961l0.214-5.814
		c0,0,2.252,0.68,4.274,0.131v5.338l-1.729,3.313l2.528,0.109l1.168-2.17l1.977,2.17h2.612l-3.515-3.863v-5.672
		c0,0,6.435-1.43,6.435-10.486c0,0,7.627,6.674,12.394-4.768l-10.964-3.813 M38.366,77.655c-3.353,3.355-9.685,2.982-12.774-0.104
		c-3.088-3.088-1.214-12.275-1.214-12.275s2.13,1.105,6.618,1.127c4.666,0.025,8.669-1.35,8.669-1.35S41.72,74.302,38.366,77.655z
		 M36.809,50.349c-5.725,0-10.419-4.389-10.915-9.985c-1.635,0.971-3.539,1.539-5.578,1.539c-6.056,0-10.965-4.909-10.965-10.964
		c0-6.055,4.909-10.964,10.965-10.964c5.724,0,10.418,4.389,10.914,9.985c1.636-0.97,3.539-1.537,5.579-1.537
		c6.055,0,10.964,4.909,10.964,10.963S42.863,50.349,36.809,50.349z"/>
	<path fill-rule="evenodd" clip-rule="evenodd" fill="#4880C0" d="M22.483,28.122c-2.615,0-4.736,2.121-4.736,4.737
		c0,2.617,2.121,4.738,4.736,4.738c2.617,0,4.738-2.121,4.738-4.738C27.221,30.243,25.1,28.122,22.483,28.122 M23.511,33.274
		c-1.157,0-2.095-0.937-2.095-2.093c0-1.156,0.938-2.094,2.095-2.094c1.157,0,2.095,0.938,2.095,2.094
		C25.606,32.337,24.668,33.274,23.511,33.274"/>
	<path fill="none" stroke="#0173AF" stroke-width="0.5" stroke-miterlimit="10" d="M22.483,28.122c-2.615,0-4.736,2.121-4.736,4.737
		c0,2.617,2.121,4.738,4.736,4.738c2.617,0,4.738-2.121,4.738-4.738C27.221,30.243,25.1,28.122,22.483,28.122z M23.511,33.274
		c-1.157,0-2.095-0.937-2.095-2.093c0-1.156,0.938-2.094,2.095-2.094c1.157,0,2.095,0.938,2.095,2.094
		C25.606,32.337,24.668,33.274,23.511,33.274z"/>
	<path fill-rule="evenodd" clip-rule="evenodd" fill="#4880C0" d="M37.375,35.354c-2.616,0-4.738,2.12-4.738,4.737
		c0,2.616,2.122,4.735,4.738,4.735c2.615,0,4.736-2.119,4.736-4.735C42.111,37.475,39.99,35.354,37.375,35.354 M38.402,40.507
		c-1.157,0-2.095-0.938-2.095-2.094s0.938-2.094,2.095-2.094c1.157,0,2.094,0.938,2.094,2.094S39.559,40.507,38.402,40.507"/>
	<path fill="none" stroke="#0173AF" stroke-width="0.5" stroke-miterlimit="10" d="M37.375,35.354c-2.616,0-4.738,2.12-4.738,4.737
		c0,2.616,2.122,4.735,4.738,4.735c2.615,0,4.736-2.119,4.736-4.735C42.111,37.475,39.99,35.354,37.375,35.354z M38.402,40.507
		c-1.157,0-2.095-0.938-2.095-2.094s0.938-2.094,2.095-2.094c1.157,0,2.094,0.938,2.094,2.094S39.559,40.507,38.402,40.507z"/>
	<path fill-rule="evenodd" clip-rule="evenodd" fill="#4880C0" d="M31.914,50.267c0,5.963-4.233,10.799-9.455,10.799
		c-5.222,0-9.455-4.836-9.455-10.799s4.233-10.797,9.455-10.797C27.681,39.47,31.914,44.304,31.914,50.267"/>
	
		<ellipse fill="none" stroke="#0173AF" stroke-width="0.5" stroke-miterlimit="10" cx="22.459" cy="50.267" rx="9.455" ry="10.799"/>
	<path fill-rule="evenodd" clip-rule="evenodd" fill="#FFFFFF" d="M29.813,50.618c0,5.318-3.71,9.629-8.287,9.629
		c-4.578,0-8.288-4.311-8.288-9.629s3.71-9.631,8.288-9.631C26.103,40.987,29.813,45.3,29.813,50.618"/>
	<path fill-rule="evenodd" clip-rule="evenodd" fill="#4880C0" d="M28.062,50.501c0,4.738-3.37,8.578-7.529,8.578
		c-4.158,0-7.529-3.84-7.529-8.578s3.371-8.58,7.529-8.58C24.692,41.921,28.062,45.763,28.062,50.501"/>
	<ellipse fill="none" stroke="#0173AF" stroke-width="0.5" stroke-miterlimit="10" cx="20.533" cy="50.501" rx="7.529" ry="8.578"/>
	<path fill-rule="evenodd" clip-rule="evenodd" fill="#FFFFFF" d="M20.658,47.618c-0.499,0.869-6.601-0.523-7.4,2.566
		c-0.801,3.088,2.001,5.313,3.983,4.986c1.982-0.324,4.913-3.039,5.494-3.184c0.581-0.145,2.29,1.307,1.416,2.756
		c-0.874,1.447-4.391,4.191-8.744,4.035c-4.352-0.156-6.945-5.559-6.263-8.643c0.683-3.086,4.03-4.412,6.832-4.773
		C18.778,45.001,22.183,44.966,20.658,47.618"/>
</g>
<g>
	<path fill="#C7438E" d="M115.428,66.538c0,4.72-1.6,8.72-4.48,11.601c-2.88,2.96-6.88,4.479-11.6,4.479
		c-4.32,0-8.48-0.72-12.48-2.08c-2.08-0.72-3.52-2.64-3.52-4.88V29.097c0-2.32,1.84-4.16,4.16-4.16c2.24,0,4.08,1.84,4.08,4.16
		v13.44c2.48-1.12,5.68-2.08,8.32-2.08c4.72,0,8.24,1.36,11.12,4.32c2.88,2.88,4.4,7.04,4.4,11.681V66.538z M107.188,55.817
		c0-4.88-2.88-7.76-7.84-7.76c-2.88,0-5.52,1.04-7.76,2.88v23.121c2.56,0.64,5.12,0.96,7.76,0.96c4.96,0,7.84-2.801,7.84-7.761
		V55.817z"/>
	<path fill="#C7438E" d="M152.467,75.658c0,2.24-1.44,4.16-3.52,4.88c-3.92,1.36-8.48,2.08-12.96,2.08c-4.88,0-8.72-1.2-11.44-3.52
		c-2.72-2.32-4.16-5.601-4.16-9.521s1.44-6.96,4.16-9.2c2.72-2.32,6.56-3.521,11.44-3.521h8.24v-2.8c0-3.36-2.48-6-6.64-6
		c-3.76,0-5.84,0.48-8.64,2.16c-0.64,0.399-1.52,0.72-2.24,0.72c-2.16,0-3.92-1.6-3.92-3.6c0-1.44,0.64-2.881,2-3.681
		c4.32-2.48,8.08-3.2,13.84-3.2c8.96,0,13.84,6.48,13.84,13.6V75.658z M144.227,64.458h-8.24c-6.96,0-7.36,3.76-7.36,5.12
		c0,1.44,0.4,5.44,7.36,5.44c2.72,0,5.68-0.4,8.24-1.04V64.458z"/>
	<path fill="#C7438E" d="M192.386,66.538c0,4.72-1.6,8.72-4.48,11.601c-2.88,2.96-6.88,4.479-11.6,4.479
		c-4.32,0-8.48-0.72-12.48-2.08c-2.08-0.72-3.52-2.64-3.52-4.88V29.097c0-2.32,1.84-4.16,4.16-4.16c2.24,0,4.08,1.84,4.08,4.16
		v13.44c2.48-1.12,5.68-2.08,8.32-2.08c4.72,0,8.24,1.36,11.12,4.32c2.88,2.88,4.4,7.04,4.4,11.681V66.538z M184.146,55.817
		c0-4.88-2.88-7.76-7.84-7.76c-2.88,0-5.52,1.04-7.76,2.88v23.121c2.56,0.64,5.12,0.96,7.76,0.96c4.96,0,7.84-2.801,7.84-7.761
		V55.817z"/>
	<path fill="#C7438E" d="M209.505,80.218l-13.2-34.161c-0.16-0.48-0.319-1.04-0.319-1.521c0-2.08,1.92-4.08,4.239-4.08
		c1.681,0,3.2,1.04,3.761,2.64l9.6,26.32l8.24-26.16c0.561-1.68,2.16-2.8,3.841-2.8c2.159,0,4.239,1.76,4.239,4.16
		c0,0.4-0.08,0.88-0.239,1.28l-14.32,42.801c-2.16,6.561-7.761,10.961-15.36,10.961c-2.16,0-4.08-1.521-4.08-3.921
		c0-2.08,1.76-3.76,3.92-3.84c3.52-0.16,6.56-1.6,7.68-5.12L209.505,80.218z"/>
</g>
<g>
	<path fill="#4880C0" d="M263.784,75.691c0,2.24-1.44,4.16-3.521,4.88c-3.92,1.36-8.479,2.08-12.96,2.08
		c-4.88,0-8.721-1.2-11.44-3.52c-2.72-2.32-4.16-5.601-4.16-9.521s1.44-6.96,4.16-9.2c2.72-2.32,6.561-3.521,11.44-3.521h8.24v-2.8
		c0-3.36-2.48-6-6.641-6c-3.76,0-5.84,0.48-8.64,2.16c-0.641,0.399-1.521,0.72-2.24,0.72c-2.16,0-3.92-1.6-3.92-3.6
		c0-1.44,0.64-2.881,2-3.681c4.32-2.48,8.08-3.2,13.84-3.2c8.961,0,13.841,6.48,13.841,13.6V75.691z M255.544,64.491h-8.24
		c-6.96,0-7.36,3.76-7.36,5.12c0,1.44,0.4,5.44,7.36,5.44c2.72,0,5.68-0.4,8.24-1.04V64.491z"/>
	<path fill="#4880C0" d="M271.622,52.411c0-6.801,5.12-11.92,11.92-11.92c2,0,4.001,0.24,6.001,0.64c1.92,0.4,3.279,2,3.279,3.92
		c0,2.16-1.6,3.84-3.92,3.84c-0.479,0-0.72,0-1.359-0.16c-1.28-0.319-2.721-0.64-4.001-0.64c-2,0-3.68,1.68-3.68,3.68v26.721
		c0,2.32-1.84,4.16-4.08,4.16c-2.32,0-4.16-1.84-4.16-4.16V52.411z"/>
	<path fill="#4880C0" d="M296.981,29.13c0-2.32,1.84-4.16,4.16-4.16c2.24,0,4.08,1.84,4.08,4.16v12.16h7.76
		c2.32,0,4.16,1.68,4.16,3.92c0,2.399-1.76,4-4.16,4h-7.76v20.88c0,3.041,1.6,4.961,3.68,4.961c2.32,0,2.721-0.641,4.24-0.641
		c2,0,4,1.44,4,3.841c0,2-1.52,3.52-3.52,3.92c-1.601,0.319-3.12,0.479-4.721,0.479c-6.56,0-11.92-5.12-11.92-12.48V29.13z"/>
	<path fill="#4880C0" d="M326.982,34.25c-2.561,0-4.641-2.08-4.641-4.64s2.08-4.64,4.641-4.64c2.56,0,4.64,2.08,4.64,4.64
		S329.542,34.25,326.982,34.25z M322.822,44.65c0-2.32,1.92-4.16,4.16-4.16c2.319,0,4.08,1.84,4.08,4.16v33.841
		c0,2.32-1.761,4.16-4.08,4.16c-2.24,0-4.16-1.84-4.16-4.16V44.65z"/>
	<path fill="#4880C0" d="M348.421,64.651v13.84c0,2.32-1.841,4.16-4.08,4.16c-2.32,0-4.16-1.84-4.16-4.16V29.13
		c0-2.32,1.84-4.16,4.16-4.16c2.239,0,4.08,1.84,4.08,4.16v25.68l14.24-13.2c0.8-0.8,1.84-1.12,2.88-1.12c2.16,0,4,1.84,4,4.16
		c0,1.12-0.48,2.16-1.36,2.96l-13.68,12.161l14.56,16c0.721,0.72,0.961,1.76,0.961,2.72c0,2.08-1.681,4.16-4.001,4.16
		c-1.199,0-2.399-0.479-3.199-1.439L348.421,64.651z"/>
	<path fill="#4880C0" d="M381.301,65.451c0,3.28,0.561,5.44,1.601,6.88c1.36,1.761,3.44,2.721,6.16,2.721
		c3.04,0,5.92-0.881,8.64-2.08c0.561-0.24,1.12-0.4,1.681-0.4c2,0,3.92,1.68,3.92,3.76c0,1.521-0.64,2.881-2.08,3.601
		c-3.84,1.84-7.92,2.72-12.16,2.72c-4.641,0-8.641-1.52-11.601-4.479c-2.88-2.881-4.4-6.881-4.4-11.601v-10.08
		c0-4.641,1.521-8.641,4.4-11.521c2.96-2.96,6.96-4.48,11.601-4.48c4.72,0,8.72,1.52,11.601,4.48c2.88,2.88,4.479,6.88,4.479,11.521
		v3.76c0,2.88-2.32,5.2-5.2,5.2H381.301z M396.901,57.85c0-6.64-2.72-9.76-7.84-9.76c-5.04,0-7.761,3.04-7.761,9.76H396.901z"/>
	<path fill="#4880C0" d="M412.181,29.13c0-2.32,1.84-4.16,4.16-4.16c2.239,0,4.08,1.84,4.08,4.16v49.361
		c0,2.32-1.841,4.16-4.08,4.16c-2.32,0-4.16-1.84-4.16-4.16V29.13z"/>
</g>
<g>
	<path fill="#C7438E" d="M359.086,27.145c0-1.365,1.131-2.496,2.535-2.496c1.365,0,2.496,1.131,2.496,2.496
		c0,1.404-1.131,2.535-2.496,2.535C360.217,29.68,359.086,28.549,359.086,27.145z"/>
	<path fill="#C7438E" d="M366.339,17.004c0-2.262,0.702-4.251,2.106-5.655c1.443-1.443,3.432-2.145,5.694-2.145
		c1.326,0,2.769,0.468,3.822,1.014c0-2.535,0-6.552,0-6.552c0-1.131,0.857-2.028,1.988-2.028c1.132,0,2.028,0.897,2.028,2.028
		v22.699c0,1.092-0.702,2.028-1.716,2.379c-1.95,0.663-4.018,1.014-6.123,1.014c-2.263,0-4.213-0.741-5.655-2.184
		c-1.404-1.404-2.146-3.354-2.146-5.655V17.004z M377.962,14.313c-1.054-0.897-2.419-1.404-3.822-1.404
		c-2.38,0-3.783,1.404-3.783,3.783v5.577c0,2.418,1.403,3.783,3.783,3.783c1.326,0,2.612-0.156,3.822-0.507V14.313z"/>
	<path fill="#C7438E" d="M389.271,21.373c0,1.599,0.272,2.652,0.779,3.354c0.663,0.858,1.678,1.326,3.004,1.326
		c1.481,0,2.886-0.429,4.212-1.014c0.272-0.117,0.546-0.195,0.819-0.195c0.975,0,1.911,0.819,1.911,1.833
		c0,0.741-0.313,1.404-1.015,1.755c-1.872,0.897-3.861,1.326-5.928,1.326c-2.263,0-4.213-0.741-5.655-2.184
		c-1.404-1.404-2.146-3.354-2.146-5.655v-4.914c0-2.262,0.741-4.212,2.146-5.616c1.442-1.443,3.393-2.184,5.655-2.184
		c2.301,0,4.251,0.741,5.655,2.184c1.403,1.404,2.184,3.354,2.184,5.616v1.833c0,1.404-1.131,2.535-2.535,2.535H389.271z
		 M396.877,17.667c0-3.237-1.326-4.758-3.822-4.758c-2.457,0-3.783,1.482-3.783,4.758H396.877z"/>
</g>
<text transform="matrix(1 0 0 1 640 400)" font-family="'MyriadPro-Regular'" font-size="12">Ralph Kappes</text>
</svg>
